<svg width="93" height="48" viewBox="0 0 93 48" fill="none" xmlns="http://www.w3.org/2000/svg">
<path d="M38.652 38.448C34.94 38.448 32.508 37.008 30.812 34.064L34.684 31.152C35.516 32.784 36.732 33.52 37.884 33.52C39.74 33.52 40.732 32.592 40.732 29.488V14.16H46.46V29.936C46.46 34.608 43.996 38.448 38.652 38.448ZM55.002 38V14.16H60.73V38H55.002ZM69.3895 38V14.16H75.5655L79.3415 24.464C79.8215 25.84 80.2055 27.344 80.6535 28.784H80.8135C81.2935 27.344 81.6775 25.84 82.1255 24.464L85.7735 14.16H91.9815V38H86.7655V29.84C86.7655 27.472 87.2135 23.92 87.5335 21.584H87.3735L85.3895 27.28L82.1895 35.984H79.0535L75.8215 27.28L73.9015 21.584H73.7735C74.0615 23.92 74.5095 27.472 74.5095 29.84V38H69.3895Z" fill="#F8FBFF"/>
<path d="M23 14.5199V37.5199H0L23 14.5199Z" fill="#F8FBFF"/>
</svg>
